<svg version="1.1" id="Keys" xmlns="http://www.w3.org/2000/svg" x="0" y="0" viewBox="0 0 128 128" style="enable-background:new 0 0 128 128" xml:space="preserve"><style>.st0{display:none;fill:#1c252c}</style><g id="row1"><path id="key:2_2_" d="M64 14.1c-4.6 0-8.3 3.7-8.3 8.3 0 4.6 3.7 8.3 8.3 8.3 4.6 0 8.3-3.7 8.3-8.3 0-4.6-3.7-8.3-8.3-8.3zm0 13.3c-2.8 0-5-2.2-5-5s2.2-5 5-5 5 2.2 5 5c0 2.7-2.2 5-5 5zm0-13.3c-4.6 0-8.3 3.7-8.3 8.3 0 4.6 3.7 8.3 8.3 8.3 4.6 0 8.3-3.7 8.3-8.3 0-4.6-3.7-8.3-8.3-8.3zm0 13.3c-2.8 0-5-2.2-5-5s2.2-5 5-5 5 2.2 5 5c0 2.7-2.2 5-5 5zm0-13.3c-4.6 0-8.3 3.7-8.3 8.3 0 4.6 3.7 8.3 8.3 8.3 4.6 0 8.3-3.7 8.3-8.3 0-4.6-3.7-8.3-8.3-8.3zm0 13.3c-2.8 0-5-2.2-5-5s2.2-5 5-5 5 2.2 5 5c0 2.7-2.2 5-5 5zM64 0C45.5 0 30.4 15.1 30.4 33.6c0 12.1 6.4 23.1 16.9 29.1v55.8l12.3 9.4 13.5-18.4L68.7 97l3.8-2.6V82.5l8.3-3.4V62.8c10.4-6 16.8-17 16.8-29.1C97.6 15.1 82.5 0 64 0zm13.2 59.1-1.3.7v16l-8.3 3.4v12.6l-4.7 3.3 4.8 13.6-6.9 9.4V62.7h-3.3v57.4l-5.2-4V59.8l-1.3-.7c-9.6-5-15.5-14.7-15.5-25.5C35.3 17.8 48.2 4.9 64 4.9s28.7 12.9 28.7 28.7c0 10.8-5.9 20.6-15.5 25.5z" style="fill:#1c252c"/></g></svg>